<svg xmlns="http://www.w3.org/2000/svg" version="1.1" viewBox="38 88 1986 919">
<path transform="translate(924,237)" d="m0 0h7l11 3 7 4 7 7 7 12 246 1h82l8 7 19 19 5 4 58 58v2l6 3h17l-1 4-2 3 6-6h346 2l50-1 2-1 5-10 5-6 10-6 8-3h11l10 3 8 5 5 5 6 9 2 8v12l-4 13-9 10-7 4-5 2-6 1h-10l-11-3-6-4-8-9-2-6h-73l2-5h-1l-4 4-3 1h-344l3-5-5 4-6 1-8-6-7-8-42-42-6-5v-2l-4-2-27-27-2-1-53-1-3-1v1h-264l-8 11-8 7-11 4h-15l-10-4-8-6-6-8-4-9v-17l4-9 4-6 9-8 10-4zm285 28 1 2zm1 2 1 2z" fill="#0C0C0C"/>
<path transform="translate(162,419)" d="m0 0h15l10 4 8 6 8 10v2h420v4l6-5 6 2 10 9 6 5 7 8 71 71 54 1h2l263-1 4-4 7-9 9-6 7-3h15l10 4 9 6 7 9 4 11v11l-4 11-6 8-9 7-13 4-13-1-9-3-8-6-6-8-3-7-245-1h-2-82l-8-7-85-85-2-1h-18l-2-1h-346v-2l-3 2h-51l-2 7-9 10-5 4-9 4-5 1h-12l-10-3-8-6-7-8-3-8-1-6v-9l3-12 6-8 7-6 8-4zm623 119m1 1v2l2-1zm2 2 1 3 2-1zm3 3m5 5m1 1m2 2 2 4v-3z" fill="#101010"/>
<path transform="translate(1105,135)" d="m0 0h8l8 3 6 7 2 4v11l-4 7-8 6-4 1h-10l-6-3-6-9v-2l-112 1h-64l-2-2-1 1-94 1-7 8-52 52-8 7-30 30-3 1h-69l7 8 64 64 8 7 65 65 7 8 15 15 8 7 10 10 8 7 16 17 8 9-1 2-5-2h-5l6 4 5 1 4-1 7 6 3 1h300l2-6 7-6 9-1 8 2 6 4 5 6 1 2v9l-4 8-7 6-6 2h-7l-7-3-6-7-2-3-305-1-5-4-7-8-11-12-12-11-3-2v-2l-4-2-9-9-9-11-5-11-6-8-9-11-2-1 5 9 9 10 3 6h-2l-7-8-7-7-8-7-10-9-71-71-8-7-53-53-7-8-2-2h-250l-7 9-7 4h-12l-6-4-5-6-2-5v-9l3-6 5-5 6-3h11l6 3 7 8 1 2 333-1 58-58 8-7 4-5h2l2-4 23-23 2-1h275l6-9 3-3zm2 7-8 4-3 5 1 9 6 7 2 1h8l6-4 3-6-1-9-4-5-5-2zm-193 14m-552 85-8 4-3 5v8l7 8 8 1 6-4 3-4v-10l-4-6-5-2zm832 239-7 4-2 4v10l3 5 6 3 8-1 6-5 2-5-1-8-5-5-5-2z" fill="#1A1A1A"/>
<path transform="translate(908,323)" d="m0 0h209l21 1 8 6 11 11 8 7 33 33 4 5 8 7 21 21 7 8 14 14 8 7 118 118 2 1h247l7-9 6-4 3-1h8l8 3 7 8 2 8-2 8-7 8-7 4h-11l-6-4-7-9h-334l-2 4-12 12-4 5h-2l-2 4-8 8-8 7-26 26-7 8-12 12-8 7-6 5-3 1h-272l-8 9-7 4h-11l-6-3-6-7-2-11 3-9 7-6 5-2h10l6 3 9 10h270l8-7 27-27 7-8 51-51 6-5 71-1-6-7-11-11-5-4-4-5-2-1v-2l-3-1v-2l-4-2-84-84-8-7-7-7-7-8-15-16-8-8-10-8-53-53-2-1h-140l-82-1-3-8zm294 74 10 10h2l2 4 4 2-2-6-8-8-4-2zm441 158-6 4-2 5v7l3 6 6 4 7-1 6-4 3-5v-8l-5-6-4-2zm-743 99-6 3-4 5v10l5 6 5 2 6-1 8-7v-9l-6-7-4-2z" fill="#1A1A1A"/>
<path transform="translate(384,496)" d="m0 0h9l7 4 7 7 2 3 181 1 5 3 37 37 8 7 36 36 7 8 5 5 3 2 168 1 1-1h100l7-10 7-4 7-1 9 3 7 6 3 7v9l-5 8-7 6-3 1h-11l-7-4-6-8h-170l43 43 2 1v2l4 2 8 8 7 8 21 21 4 1h268l4-6 5-5 4-2h13l7 4 5 6 1 2v13l-6 8-8 5h-12l-7-4-5-7v-2l-33 1h-150l-2-2-2 2h-84l-7-2-95-95v-2l-90-1-62-62-8-7-27-27-1-2-164-1-13-1-8 10-6 4-3 1h-11l-8-5-5-8-1-10 3-8 8-7zm3 7-6 3-4 5-1 7 3 6 6 5 5 1 6-3 5-6 1-2v-6l-4-6-4-3zm591 99-6 3-4 6v7l4 6 3 3 6 1 6-3 5-6v-9l-5-6-4-2zm188 99-7 3-3 4-1 9 3 6 4 3 7 1 8-4 3-4v-10l-5-6z" fill="#161616"/>
<path transform="translate(843,88)" d="m0 0 9 2 7 6 3 5 2 1h271l7 3 10 10 8 7 60 60 7 8 11 11 88 1 8 7 90 90 2 1h176l6-8 5-4 5-2h9l6 3 6 7 2 4v11l-5 9-7 5-3 1h-7l-8-4-7-9-2-3-4 2h-177l-8-7-91-91-111-1v-6h-2v5l-1 1h-57-2l-99 1-7 8-7 4-6 1-8-2-7-5-4-8v-10l5-8 7-5 11-1 8 3 7 8 1 2h172l-12-12-5-4v-2h-2l-7-8-12-12-5-4-4-4v-2h-2l-4-4v-2h-2l-28-28-4-5-87-1h-184l-11 12-6 2h-9l-6-3-6-7-2-5v-8l3-7 5-5 5-3zm-4 8-6 4-2 5 1 9 7 6h9l6-5 1-2v-10l-5-6-2-1zm188 99-6 4-2 4v9l4 6 4 2h7l6-4 3-4v-9l-5-6-4-2zm119 9m1 1 1 5 1-3zm470 89-6 5-1 3v7l4 7 6 3 6-1 6-4 2-3v-9l-3-5-4-3z" fill="#1A1A1A"/>
<path transform="translate(924,237)" d="m0 0h7l11 3 7 4 7 7 7 12 245 1 7 10 10 10 1 3h-264l-8 11-8 7-11 4h-15l-10-4-8-6-6-8-4-9v-17l4-9 4-6 9-8 10-4z" fill="#0B0B0B"/>
<path transform="translate(1368,765)" d="m0 0h17l11 4 8 6 4 6 2 6v17l-3 10-7 9-3 3 1 4 6 10 3 10v7l-3 12-5 9-9 8-11 4-6 1-32 1-24-1v-14l4-49 4-52 1-5 24-4zm-8 31-7 2-2 13v4h7l11-4 4-3 1-3v-9zm15 19v2h2v-2zm-15 27-9 3-1 16 1 2 7-1 10-6 3-5-1-7-3-2zm-18 33-1 5h4l-1-5z" fill="#0A0A0A"/>
<path transform="translate(873,764)" d="m0 0h11l7 3 6 7 6 17 8 42 6 35 3 22-1 1h-34l-1-5-1-19-28 5-4 17-2 2-32-1-1-3 5-20 11-35 10-27 11-27 4-8 5-4zm-2 45-6 28v2h12l1-1-1-13-2-9-2-7zm-6 8-4 8-5 13v3h3l7-22zm30 16v2h2v-2zm2 24 1 10-2 2 1 4 5 2 3 9h4l-3-15-4-9zm-49 2v3h3v-3zm-8 10-1 2 3-1z" fill="#0C0C0C"/>
<path transform="translate(1124,764)" d="m0 0h10l7 3 6 7 4 10 5 20 11 62 3 24-1 1h-34l-2-21v-4l-10 3-18 3-4 18-1 1h-13l-20-1 1-9 10-35 12-34 11-29 7-14 4-3zm-3 44v3h2v-3zm-2 3 1 2 1-2zm3 1-6 19-1 8h12l1-5-2-16-3-6zm-4 1-9 17-3 8 1 4 3-5 8-20 1-4zm26 18-1 2 1 3h2l-1-5zm6 27-1 1-1 8-2 4 6 5 3 7 3 1-1-10-3-12zm-51 1-2 2 1 1h5v-2z" fill="#0D0D0D"/>
<path transform="translate(162,419)" d="m0 0h15l10 4 8 6 8 10v2h420l-1 2-278-1v3l4 2 11 11 2 4 209 1v1h-311v-2l-3 2h-51l-2 7-9 10-5 4-9 4-5 1h-12l-10-3-8-6-7-8-3-8-1-6v-9l3-12 6-8 7-6 8-4z" fill="#0C0C0C"/>
<path transform="translate(628,765)" d="m0 0h24l8 3 8 7 4 10 1 4v13l-2 5-1 1-7 1h-18l-2-3-2-16-1-2-4 1-3 4-1 4v7l3 5 8 7 12 8 7 6 7 10 3 10v9l-4 13-8 10-10 6-10 3h-20l-16-5-10-5-5-5 8-16 2-3 6 1 17 7 10 1 4-4 1-6-4-6-9-7-11-7-11-10-5-9-1-4v-12l3-11 6-11 7-7 12-6z" fill="#0B0B0B"/>
<path transform="translate(344,442)" d="m0 0h278l-2 4-11 11-2 3h-2v4h-35l-209-1-6-8-9-9-2-1z" fill="#030303"/>
<path transform="translate(1835,331)" d="m0 0h11l10 3 8 5 5 5 6 9 2 8v12l-4 13-9 10-7 4-5 2-6 1h-10l-11-3-6-4-8-9-2-6h-73l2-5 4-6 7-8 5-3 1-1 50-1 2-1 5-10 5-6 10-6z" fill="#0A0A0A"/>
<path transform="translate(1251,382)" d="m0 0h29l12 1 8 7 68 68 6 7 3 1h139l2-5 4-5 8-4h9l8 4 5 6 3 7v7l-6 9-5 4-5 2h-10l-6-3-5-6-2-3-101-1h-35l-10-1-7-7-7-8-8-8-2-1v-2l-4-2-15-15-8-7-24-24-7-8-70-1-8-7-3-4z" fill="#1E1E1E"/>
<path transform="translate(1209,264)" d="m0 0h82l8 7 19 19 5 4 58 58v2l6 3h17l-1 4-3 3-3 5-5 6-4 1-6 5-6-1-6-5-7-8-42-42-6-5v-2l-4-2-27-27-2-1-53-1-9-7-8-8z" fill="#0F0F0F"/>
<path transform="translate(629,440)" d="m0 0 6 2 10 9 6 5 7 8 71 71 54 1 3 3v2h2l3 3 4 2 3 4 2 2 2 6h-82l-8-7-85-85-2-1h-18l-1-5 9-10 7-6h2z" fill="#0C0C0C"/>
<path transform="translate(472,330)" d="m0 0h9l6 3 9 10h65l78 1 6 4 25 25v2h2l4 5 8 7 10 10 6 7 20 20v2l5 2h53l13 1v7l8-1 5 1-3 2-11 1h-71l-8-7-27-27-7-8-18-18-8-7-9-10-5-6-141-1-2 5-5 5-6 4-9 1-8-3-7-8-2-5v-9l3-6 5-5z" fill="#1A1A1A"/>
<path transform="translate(1193,474)" d="m0 0 10 1 8 5 5 6 1 2v9l-4 8-7 6-6 2h-7l-7-3-6-7-2-3-305-1-5-4-7-8-4-6h8l4-1 7 6 3 1h300l2-6 7-6zm1 6-7 4-2 4v10l3 5 6 3 8-1 6-5 2-5-1-8-5-5-5-2z" fill="#131313"/>
<path transform="translate(916,368)" d="m0 0h7l8 4 9 10h146l35 1-4 6-2 5-177 1-7 7-10 5h-8l-6-4-5-6-2-5v-9l4-8 9-6z" fill="#181818"/>
<path transform="translate(1161,695)" d="m0 0h13l7 4 5 6 1 2v13l-6 8-8 5h-12l-7-4-5-7v-2l-33 1h-150l-5-8-1-5h188l4-6 5-5zm5 6-7 3-3 4-1 9 3 6 4 3 7 1 8-4 3-4v-10l-5-6z" fill="#1C1C1C"/>
<path transform="translate(1105,135)" d="m0 0h8l8 3 6 7 2 4v11l-4 7-8 6-4 1h-10l-6-3-6-9v-2l-112 1h-64l-1-4 2-7h-101v-1h275l6-9 3-3zm2 7-8 4-3 5 1 9 6 7 2 1h8l6-4 3-6-1-9-4-5-5-2z" fill="#2C2C2C"/>
<path transform="translate(277,441)" d="m0 0h346l-1 2-278-1v3l4 2 11 11 2 4 209 1v1h-311v-2l-2-1 15-16 2-3z" fill="#2C2C2C"/>
<path transform="translate(1651,358)" d="m0 0h102l-2 4h-2l-2 4-14 14-3 1h-32l-31-1-6-8-11-11z" fill="#0D0D0D"/>
<path transform="translate(880,948)" d="m0 0h12l5 8 11 24 4 7 9-16 9-17 2-6h14v58h-10v-46l-1 1-15 29-7 12-4-2-18-36-2-3v18l-1 27h-8z" fill="#363636"/>
<path transform="translate(1028,188)" d="m0 0 10 1 6 4 6 8 97 1 1 6 2 1-1 4-99 1-7 8-7 4-6 1-8-2-7-5-4-8v-10l5-8 7-5zm-1 7-6 4-2 4v9l4 6 4 2h7l6-4 3-4v-9l-5-6-4-2z" fill="#121212"/>
<path transform="translate(489,947)" d="m0 0 11 1 3 3 14 30 2 6 4-4 16-31 1-3 2-1h11l1 1-1 57h-8v-47h-2l-2 6-8 16-11 21-3 1-19-38-2-3-1 44h-8l-1-5z" fill="#292929"/>
<path transform="translate(1047,948)" d="m0 0h29l15 1 7 3 4 8v9l-4 7-6 4-3 1 2 5 10 16 1 4h-8l-7-9-7-12-1-3-22-1v25h-9l-1-3zm10 8v18h30l5-3 1-1v-11l-3-3z" fill="#2D2D2D"/>
<path transform="translate(653,948)" d="m0 0h34l13 3 7 5 6 10 1 3v18l-4 8-8 7-8 3-6 1h-34l-1-1zm10 8v42l3 1h13l15-1 6-3 4-5 2-7v-11l-3-8-5-6-7-2z" fill="#2E2E2E"/>
<path transform="translate(1808,948)" d="m0 0h11l5 4 11 14 12 13 9 11 2 1v-43h8v58l-4 1-5-2-9-11-12-13-7-8-12-14-1 47h-8z" fill="#2C2C2C"/>
<path transform="translate(1380,948)" d="m0 0h12l5 5 8 10 10 11 9 11 6 6v-43h7l2 1v57h-8l-11-12-7-8-9-10-12-14-4-4 1 6-1 42h-8z" fill="#1A1A1A"/>
<path transform="translate(133,948)" d="m0 0h19l10 4 8 7 5 10 1 5v7l-3 10-7 8-8 5-14 3-12-1-12-6-7-8-3-7v-15l4-9 6-7 9-5zm5 7-9 3-6 5-3 7-1 11 2 8 4 5 6 4 11 2 11-2 8-5 4-5 1-3v-15l-4-8-7-5-7-2z" fill="#1B1B1B"/>
<path transform="translate(1484,948)" d="m0 0h16l13 4 7 4-3 9-4-2-6-4-12-3-13 1-8 4-5 8-1 11 3 9 5 5 8 4 8 1 14-3 5-3 2-8h-18l-1-8h27l1 1v15l-3 5-8 5-11 3-12 1-12-3-9-6-6-8-2-5v-14l4-9 7-8 10-5z" fill="#242424"/>
<path transform="translate(1671,948)" d="m0 0h17l15 5 5 3-2 6-3 2-8-5-12-3h-9l-9 3-6 5-3 8v11l4 8 6 5 12 3 13-2 8-4 2-2 1-6h-20l-1-8h27l2 1v16l-5 6-12 5-15 2-12-2-10-6-6-7-3-7-1-9 2-9 6-10 9-6z" fill="#262626"/>
<path transform="translate(1734,948)" d="m0 0h50l1 5-1 3h-40v18l27-1 2 2v5l-11 1h-14l-4-1v19l41-1 1 1v7h-52z" fill="#282828"/>
<path transform="translate(57,948)" d="m0 0h19l14 4 1 5-1 4-5-1-7-3-6-1h-12l-9 3-3 3v8l21 2 16 2 6 4 3 4v10l-4 6-6 5-9 3-10 1-14-2-12-5-1-5 2-5 4 2 6 4 7 2h18l8-4 2-2v-7l-1-2-31-2-9-3-5-6-1-8 4-8 9-6z" fill="#212121"/>
<path transform="translate(629,947)" d="m0 0 2 1v8h-41v18h30v6l-29 1-1 18h44v6l-2 1h-51l-1-7v-50l1-1z" fill="#232323"/>
<path transform="translate(1202,948)" d="m0 0h49l1 7-1 1h-40v18l21-1h6l1 1v6l-1 1h-24l-3-1v19l42-1 1 2-1 6h-52v-57z" fill="#333"/>
<path transform="translate(1178,947)" d="m0 0h3l-2 4-16 12-5 4h-2l6 9 9 11 13 16v3h-8l-5-5-9-10-11-15v-2l-7 3-7 5-1 24h-10v-58l10 1 1 25 13-10 19-14z" fill="#2B2B2B"/>
<path transform="translate(1088,416)" d="m0 0h11l6 4 4 5 2 5v9l-5 8-4 4-11 2-9-3-6-7-2-3-26-1 1-10 25-1 4-6 5-4zm0 3-6 5-1 2v15l3 6 1-2-1-6 1-11 4-5 5 1 1-4-1-1zm-3 28m7 1 1 3v-3z" fill="#171717"/>
<path transform="translate(1601,947)" d="m0 0 6 1 8 16 14 29 6 11v2h-11l-5-14-2-1h-24l-7 1-5 13-1 1h-9l2-5 6-12 15-34 3-6zm-1 11-6 16-3 7v3h23l-3-9-8-16z" fill="#272727"/>
<path transform="translate(810,309)" d="m0 0h9l6 3 8 9 3 3h58l2 10h-52l-8-1v-2l2-1h7l3 1 5-3h-19l-2 6-4 6-7 6-6 2h-7l-8-5-5-9v-10l4-8 9-6zm1 7-6 4-3 5v8l4 6 7 3h7l6-5 1-2v-10l-4-6-5-3z" fill="#333"/>
<path transform="translate(334,947)" d="m0 0 7 1 8 16 11 23 8 17v2h-9l-4-9-2-5-2-1h-30l-5 11-2 4h-9l9-20 11-24 5-11zm1 11-6 13-5 11v2h24l-5-13-6-13z" fill="#222"/>
<path transform="translate(215,948)" d="m0 0h18l16 5 2 1-1 6-2 4-4-2-4-3-12-3h-9l-10 3-6 5-4 9v7l4 9 7 6 8 3h13l10-4 7-5 4 2v5l-6 5-13 5-11 1-11-2-9-5-5-4-6-10-1-3v-13l5-10 9-8z" fill="#212121"/>
<path transform="translate(1912,948)" d="m0 0h18l13 4 6 4-5 7-4-2-10-4-13-1-8 2-7 4-4 7-1 4v7l3 9 7 6 8 3h13l10-4 7-5 4 1-1 7-9 6-10 3-11 1-12-3-8-5-7-8-3-6-1-4v-9l3-9 7-8 11-6z" fill="#202020"/>
<path transform="translate(791,948)" d="m0 0h8l3 3 11 24 14 29v2h-8l-2-1-6-14h-31l-4 8-3 7h-9l9-20 8-17 8-19zm3 10-5 11-6 13v2h23l-1-6-8-18-1-2z" fill="#1F1F1F"/>
<path transform="translate(991,948)" d="m0 0h8l3 4 7 16 8 16 8 15 2 4v3h-9l-4-8-3-7h-32l-6 15h-9l2-5 7-16 6-12 10-23zm2 10-10 24v2h24l-9-21-3-5z" fill="#222"/>
<path transform="translate(960,708)" d="m0 0h73l15 1-1 10-1 2h-80l-5-8z" fill="#262626"/>
<path transform="translate(1265,948)" d="m0 0h59v7l-1 1h-24v50h-9v-50h-24l-1-1z" fill="#252525"/>
<path transform="translate(2021,947)" d="m0 0 3 1-4 7-9 11-11 15-1 2-1 23h-9l-1-3 1-17-6-12-13-17-6-7v-2h11l6 8 12 18 3-1 9-13 7-10z" fill="#262626"/>
<path transform="translate(387,947)" d="m0 0 8 1 1 1v50h42v6l-1 1h-51v-16z" fill="#303030"/>
<path transform="translate(796,408)" d="m0 0 7 6 12 12 8 7 10 10 8 7 16 17 8 9-1 2-5-2h-5l6 4-4 1-8-8-8-7-5-4v-2l-4-2-9-9-9-11-5-11-6-8-7-8z" fill="#2A2A2A"/>
<path transform="translate(827,428)" d="m0 0h64l16 1-1 10h-70l-9-9z" fill="#0E0E0E"/>
<path transform="translate(735,948)" d="m0 0h9l1 1v56l-1 1h-8l-1-1z" fill="#4C4C4C"/>
<path transform="translate(1343,948)" d="m0 0 10 1-1 57h-9z" fill="#3F3F3F"/>
<path transform="translate(857,324)" d="m0 0h37l2 10h-52l-8-1v-2l2-1h7l3 1 5-3-18-1v-2z" fill="#0F0F0F"/>
<path transform="translate(277,948)" d="m0 0 9 1v57h-9z" fill="#131313"/>
<path transform="translate(274,442)" d="m0 0 3 1-15 16-2 4 98-1-7-8-8-8-1-3h2v2l4 2 11 11 2 4 209 1v1h-311v-2l-2-1 15-16z" fill="#FEFEFE"/>
<path transform="translate(1141,383)" d="m0 0h35l5 5 3 4v2h-39l-4-10z" fill="#3A3A3A"/>
<path transform="translate(1095,416)" d="m0 0 6 1 7 6 3 7v9l-5 8-4 4h-6z" fill="#111"/>
<path transform="translate(921,428)" d="m0 0h27l12 1v9l-1 1h-5v-7l-2 2-1 5h-31v-10z" fill="#1D1D1D"/>
<path transform="translate(1094,416)" d="m0 0 2 2v33l3 1-8 1-9-3-2-4v-19h1l1 14 2 4-1-6 1-11 5-6 5 1v-3l-6-1 2-2zm-9 31m7 1 1 3v-3z" fill="#FEFEFE"/>
<path transform="translate(965,428)" d="m0 0 30 1-2 9-1 1h-27l-1-10z" fill="#131313"/>
<path transform="translate(1014,429)" d="m0 0h19v10h-23l1-5z" fill="#121212"/>
<path transform="translate(1122,383)" d="m0 0h17l1 11-4-1v-9h-3l1 6h-2l-1-6h-4l2 10h-8z" fill="#9C9C9C"/>
<path transform="translate(999,429)" d="m0 0 3 1-1 6 2 1v-8h5l-1 7-1 2-10 1 1-7z" fill="#DBDBDB"/>
<path transform="translate(621,444)" d="m0 0 1 3-13 13-1 2 8 2v1h-9l-1-5 9-10z" fill="#FEFEFE"/>
<path transform="translate(897,324)" d="m0 0h6l3 6-1 4-6-1-2-5zm3 4v3l2-1z" fill="#DCDCDC"/>
<path transform="translate(954,429)" d="m0 0h6v9l-1 1h-5z" fill="#5B5B5B"/>
<path transform="translate(1039,429)" d="m0 0 5 1v8l-5 1-1-3z" fill="#717171"/>
<path transform="translate(1125,386)" d="m0 0h3l1 8h-8l1-7z" fill="#404040"/>
<path transform="translate(1211,267)" d="m0 0 5 4 7 8 3 3-1 2-8-7-5-5z" fill="#FEFEFE"/>
<path transform="translate(838,330)" d="m0 0h7l5 1v2h5v1h-11l-8-1v-2z" fill="#EDEDED"/>
<path transform="translate(911,429)" d="m0 0h4v9l-4 1-1-3z" fill="#464646"/>
<path transform="translate(797,418)" d="m0 0 5 4 6 9-2 1-7-8-4-5z" fill="#FEFEFE"/>
<path transform="translate(1122,383)" d="m0 0h14l-3 1 1 6h-2l-1-6h-4v2l-4 1z" fill="#FEFEFE"/>
<path transform="translate(1e3 429)" d="m0 0h5l-1 7-3 1z" fill="#898989"/>
<path transform="translate(1749,362)" d="m0 0 3 1-12 12 1-4 7-7z" fill="#FEFEFE"/>
<path transform="translate(793,429)" d="m0 0h2v2h2v2l-3-1z" fill="#FEFEFE"/>
<path transform="translate(1082,435)" d="m0 0" fill="#FEFEFE"/>
</svg>